# xmcd
#
# Track frame offsets: 
#        150
#        11175
#        25513
#        38554
#        55699
#        67288
#        80197
#        92917
#        102442
#        114209
#        126800
#        141299
#
# Disc length: 2035 seconds
#
# Revision: 0
# Processed by: cddbd v1.5.2PL0 Copyright (c) Steve Scherf et al.
# Submitted via: ExactAudioCopy v1.1
#
DISCID=a107f10c
DTITLE=The Count Bishops - Count Bishops
DYEAR=1977
DGENRE=Blues
TTITLE0=I Need You
TTITLE1=Stay Free
TTITLE2=Down In The Bottom
TTITLE3=Talk To You
TTITLE4=Shake Your Moneymaker
TTITLE5=Down The Road Apiece
TTITLE6=Baby You're Wrong
TTITLE7=Don't Start Cryin' Now
TTITLE8=Someone's Got My Number
TTITLE9=Sometimes Good Guys Don't Wear White
TTITLE10=You're In My Way
TTITLE11=Taste And Try, Before You Buy
EXTD=
EXTT0=
EXTT1=
EXTT2=
EXTT3=
EXTT4=
EXTT5=
EXTT6=
EXTT7=
EXTT8=
EXTT9=
EXTT10=
EXTT11=
PLAYORDER=
